<svg xmlns="http://www.w3.org/2000/svg" viewBox="0 0 512 512" width="512" height="512">
  <!-- A3 — Origami diamond head. Angular, folded-paper cat. Heart eyes negative. -->
  <rect width="512" height="512" rx="112" fill="#6E1423"/>
  <g fill="#FFFAFA">
    <!-- ears flanking the top point -->
    <path d="M196 196 L150 124 L232 168 Z"/>
    <path d="M316 196 L362 124 L280 168 Z"/>
    <!-- diamond face -->
    <path d="M256 168 L360 272 L256 392 L152 272 Z"/>
  </g>
  <g fill="#6E1423">
    <!-- heart eyes -->
    <path d="M222 262 c-11-13-30-4-30 11 c0 14 19 24 30 35 c11-11 30-21 30-35 c0-15-19-24-30-11 Z"/>
    <path d="M290 262 c-11-13-30-4-30 11 c0 14 19 24 30 35 c11-11 30-21 30-35 c0-15-19-24-30-11 Z"/>
    <!-- nose -->
    <path d="M256 314 l8 11 h-16 Z"/>
  </g>
</svg>
