<svg xmlns="http://www.w3.org/2000/svg" viewBox="0 0 512 512" width="512" height="512">
  <!-- A5 — Ear-heart fusion. One unified silhouette: heart whose top lobes ARE pointed ears. Chin = heart point. -->
  <rect width="512" height="512" rx="112" fill="#6E1423"/>
  <g fill="#FFFAFA">
    <path d="M256 392
             C198 344 150 300 150 252
             L172 126
             L236 214
             Q256 226 276 214
             L340 126
             L362 252
             C362 300 314 344 256 392 Z"/>
  </g>
  <g fill="#6E1423">
    <!-- heart eyes -->
    <path d="M218 250 c-13-15-35-5-35 13 c0 16 22 27 35 41 c13-14 35-25 35-41 c0-18-22-28-35-13 Z"/>
    <path d="M294 250 c-13-15-35-5-35 13 c0 16 22 27 35 41 c13-14 35-25 35-41 c0-18-22-28-35-13 Z"/>
    <!-- nose -->
    <path d="M256 306 l9 12 h-18 Z"/>
  </g>
</svg>
